<svg xmlns="http://www.w3.org/2000/svg" width="682.667" height="682.667" viewBox="0 0 512 512" preserveAspectRatio="xMidYMid meet" style="width: 100%; height: 100%;"><path d="M240 42.6c-53.5 4.9-98.3 25.6-135.1 62.3-33.1 33.2-53.5 73.6-60.6 120.1-2.4 15.7-2.4 46.3 0 62 9.2 60.4 42.8 113.4 93.4 147.2 12.6 8.5 36 19.9 50.8 24.7 75.8 24.8 157.7 6.4 215.1-48.3 18.6-17.6 31.9-35.8 43.8-59.7 37.5-75.3 27.2-165.6-26.5-231.1-32.7-39.9-81.5-67.6-132.9-75.3-10.4-1.5-39.3-2.7-48-1.9zM288.5 89c23.8 5.1 47.7 15.4 66.5 28.8 12.2 8.6 30.6 27.1 39.2 39.2 14.7 20.8 25.9 47.8 29.6 71.2l.9 5.8h-85.5l-1.8-5.3c-4.1-12.6-12.3-25.6-22-34.8-10.6-9.9-21.3-16.1-36.1-20.5-7.8-2.4-10.5-2.7-23.3-2.7s-15.5.3-23.3 2.7c-14.8 4.4-25.5 10.6-36.1 20.5-9.7 9.2-17.9 22.2-22 34.8l-1.8 5.3H87.1l.5-3.3c5.1-28.1 15-52.3 30.2-73.7 8.6-12.1 27.1-30.6 39.2-39.2 22.4-15.9 50.8-27.1 78-30.8 11.4-1.6 42.2-.4 53.5 2zm-20.3 127c12.9 4 23.8 14.9 27.8 27.8 9.8 31.7-20.5 62-52.2 52.2-12.9-4-23.8-14.9-27.8-27.8-9.8-31.7 20.5-62 52.2-52.2zm-93.6 67.2c8.7 26.8 29.8 46.9 58.1 55.4 7.7 2.4 10.6 2.7 22.8 2.7 11.3 0 15.5-.4 22-2.2 28.6-7.7 51-28.6 59.9-55.9l1.8-5.2h85.5l-.9 5.7c-5.8 37.1-27 75.1-55.8 100.1-64.8 56.1-158.6 56.2-223.7.3-29.5-25.3-49.3-61.3-56.7-102.9l-.5-3.2h85.7l1.8 5.2z" style="fill: #f4f4f4;"></path></svg>